<?xml version="1.0" encoding="UTF-8" standalone="no"?>
<svg
   xmlns:dc="http://purl.org/dc/elements/1.1/"
   xmlns:cc="http://creativecommons.org/ns#"
   xmlns:rdf="http://www.w3.org/1999/02/22-rdf-syntax-ns#"
   xmlns:svg="http://www.w3.org/2000/svg"
   xmlns="http://www.w3.org/2000/svg"
   xmlns:sodipodi="http://sodipodi.sourceforge.net/DTD/sodipodi-0.dtd"
   xmlns:inkscape="http://www.inkscape.org/namespaces/inkscape"
   enable-background="new 0 0 64 64"
   height="64px"
   id="FORWARD"
   version="1.1"
   viewBox="0 0 64 64"
   width="64px"
   xml:space="preserve"
   sodipodi:docname="forward2.svg"
   inkscape:version="0.92.4 (5da689c313, 2019-01-14)"><metadata
     id="metadata11"><rdf:RDF><cc:Work
         rdf:about=""><dc:format>image/svg+xml</dc:format><dc:type
           rdf:resource="http://purl.org/dc/dcmitype/StillImage" /><dc:title></dc:title></cc:Work></rdf:RDF></metadata><defs
     id="defs9" /><sodipodi:namedview
     pagecolor="#ffffff"
     bordercolor="#666666"
     borderopacity="1"
     objecttolerance="10"
     gridtolerance="10"
     guidetolerance="10"
     inkscape:pageopacity="0"
     inkscape:pageshadow="2"
     inkscape:window-width="1462"
     inkscape:window-height="736"
     id="namedview7"
     showgrid="false"
     inkscape:zoom="3.6875"
     inkscape:cx="32"
     inkscape:cy="32"
     inkscape:window-x="0"
     inkscape:window-y="0"
     inkscape:window-maximized="0"
     inkscape:current-layer="FORWARD" /><path
     d="M47.988,28.741L36.012,20.86C33.256,19.047,31,20.263,31,23.563v2.555l-7.988-5.257C20.256,19.047,18,20.263,18,23.563  v16.875c0,3.3,2.259,4.521,5.021,2.714L31,37.93v2.508c0,3.3,2.259,4.521,5.021,2.714l11.959-7.826  C50.741,33.518,50.744,30.555,47.988,28.741z M45.858,33.128l-10.185,6.665C34.753,40.396,34,39.988,34,38.889v-4.508  c0-1.1-0.753-1.507-1.674-0.905l-9.652,6.318C21.753,40.396,21,39.988,21,38.889V25.128c0-1.1,0.752-1.505,1.671-0.9l9.658,6.354  c0.919,0.604,1.671,0.199,1.671-0.9v-4.554c0-1.1,0.752-1.505,1.671-0.9l10.19,6.705C46.78,31.537,46.779,32.525,45.858,33.128z"
     id="path4" /></svg>