<?xml version="1.0" encoding="UTF-8" standalone="no"?>
<svg
   xmlns:dc="http://purl.org/dc/elements/1.1/"
   xmlns:cc="http://creativecommons.org/ns#"
   xmlns:rdf="http://www.w3.org/1999/02/22-rdf-syntax-ns#"
   xmlns:svg="http://www.w3.org/2000/svg"
   xmlns="http://www.w3.org/2000/svg"
   xml:space="preserve"
   width="32px"
   viewBox="0 0 32 32"
   version="1.1"
   id="Слой_1"
   height="32px"
   enable-background="new 0 0 32 32"><metadata
     id="metadata20"><rdf:RDF><cc:Work
         rdf:about=""><dc:format>image/svg+xml</dc:format><dc:type
           rdf:resource="http://purl.org/dc/dcmitype/StillImage" /><dc:title></dc:title></cc:Work></rdf:RDF></metadata><defs
     id="defs18" /><g
     id="g4" /><g
     id="g6" /><g
     id="g8" /><g
     id="g10" /><g
     id="g12" /><g
     id="g14" /><text
     id="text820"
     y="11.767863"
     x="11.103002"
     style="font-style:normal;font-weight:normal;font-size:40px;line-height:1.25;font-family:Caladea;letter-spacing:0px;word-spacing:0px;fill:#000000;fill-opacity:1;stroke:none;-inkscape-font-specification:Caladea;font-stretch:normal;font-variant:normal;"
     xml:space="preserve"><tspan
       y="47.158489"
       x="11.103002"
       id="tspan818"></tspan></text>
<g
     id="text824"
     style="font-style:normal;font-weight:normal;font-size:21.33333397px;line-height:1.25;font-family:sans-serif;letter-spacing:0px;word-spacing:0px;fill:#000000;fill-opacity:1;stroke:none"
     aria-label="1"><path
       id="path1663"
       style="font-style:normal;font-variant:normal;font-weight:normal;font-stretch:normal;font-size:18.66666603px;font-family:FreeSans;-inkscape-font-specification:FreeSans"
       d="m 20.832958,12.939005 h -2.930666 v -1.176 q 1.904,-0.242667 2.482666,-0.672 0.578667,-0.429333 1.008,-1.9600001 h 1.082667 V 22.365671 h -1.642667 z" /></g><path
     style="clip-rule:evenodd;fill:#f30000;fill-opacity:1;fill-rule:evenodd;stroke:#f30000;stroke-width:0.77000457;stroke-opacity:1"
     id="Loop"
     d="m 9.5247749,17.950419 6.9140001,0.101593 -1.292402,1.007085 c -0.281771,0.220292 -0.281771,0.576664 0,0.796957 0.282495,0.219735 0.739831,0.219735 1.021603,0 l 2.529306,-1.975816 c 0.281773,-0.219735 0.281773,-0.576665 0,-0.796958 h -7.23e-4 L 16.122558,15.1054 c -0.281773,-0.219735 -0.739831,-0.219735 -1.021603,0 -0.281772,0.220292 -0.281772,0.576665 0,0.796401 l 1.359495,1.026996 H 9.5422389 c -1.425293,-0.0058 -1.16275,1.063109 -0.01746,1.021622 z" /></svg>