<?xml version="1.0" encoding="UTF-8" standalone="no"?>
<svg
   xmlns:dc="http://purl.org/dc/elements/1.1/"
   xmlns:cc="http://creativecommons.org/ns#"
   xmlns:rdf="http://www.w3.org/1999/02/22-rdf-syntax-ns#"
   xmlns:svg="http://www.w3.org/2000/svg"
   xmlns="http://www.w3.org/2000/svg"
   xmlns:sodipodi="http://sodipodi.sourceforge.net/DTD/sodipodi-0.dtd"
   xmlns:inkscape="http://www.inkscape.org/namespaces/inkscape"
   enable-background="new 0 0 32 32"
   height="32px"
   id="Слой_1"
   version="1.1"
   viewBox="0 0 32 32"
   width="32px"
   xml:space="preserve"
   inkscape:version="0.92.4 (5da689c313, 2019-01-14)"
   sodipodi:docname="loop_not.svg"
   inkscape:export-filename="/home/a/droid/SMP/misc/ic_menu_repeat_one.png"
   inkscape:export-xdpi="189.34193"
   inkscape:export-ydpi="189.34193"><metadata
     id="metadata20"><rdf:RDF><cc:Work
         rdf:about=""><dc:format>image/svg+xml</dc:format><dc:type
           rdf:resource="http://purl.org/dc/dcmitype/StillImage" /><dc:title></dc:title></cc:Work></rdf:RDF></metadata><defs
     id="defs18" /><sodipodi:namedview
     pagecolor="#ffffff"
     bordercolor="#666666"
     borderopacity="1"
     objecttolerance="10"
     gridtolerance="10"
     guidetolerance="10"
     inkscape:pageopacity="0"
     inkscape:pageshadow="2"
     inkscape:window-width="1680"
     inkscape:window-height="985"
     id="namedview16"
     showgrid="false"
     inkscape:zoom="8.5976226"
     inkscape:cx="-3.2135934"
     inkscape:cy="13.520319"
     inkscape:window-x="0"
     inkscape:window-y="0"
     inkscape:window-maximized="1"
     inkscape:current-layer="Слой_1" /><g
     id="g4" /><g
     id="g6" /><g
     id="g8" /><g
     id="g10" /><g
     id="g12" /><g
     id="g14" /><g
     id="g3"
     style="fill:#f30000;fill-opacity:1"
     transform="matrix(0.06108716,0,0,0.07130913,0.54639051,-2.3365489)"><path
       style="fill:#f30000;fill-opacity:1;stroke-width:0.06600054"
       d="M 5.5488281 11.355469 C 4.4675854 11.355469 4.4135222 12.010613 4.4746094 12.816406 L 5.2675781 25.867188 C 5.3225566 26.66585 5.4815066 27.328125 6.5566406 27.328125 L 25.873047 27.328125 C 26.972616 27.328125 27.101022 26.672981 27.162109 25.867188 L 27.900391 12.652344 C 27.955369 11.853681 27.901555 11.355469 26.820312 11.355469 L 5.5488281 11.355469 z M 21.265625 14.824219 C 21.502244 14.824219 21.737731 14.91391 21.917969 15.091797 L 25.210938 18.292969 L 25.212891 18.292969 C 25.573366 18.649645 25.573366 19.228211 25.212891 19.583984 L 21.976562 22.783203 C 21.61609 23.138976 21.031321 23.138976 20.669922 22.783203 C 20.309449 22.426527 20.309449 21.848864 20.669922 21.492188 L 22.324219 19.861328 L 10.697266 19.978516 C 10.079874 19.984696 11.750584 19.979147 7.9042969 19.966797 C 6.5964276 20.050378 6.5324514 18.180286 7.9160156 18.134766 C 11.748521 18.131636 9.674041 18.090263 10.695312 18.101562 C 17.057321 18.171955 22.351562 18.042969 22.351562 18.042969 L 20.611328 16.380859 C 20.250855 16.025085 20.250855 15.448473 20.611328 15.091797 C 20.791565 14.91391 21.029006 14.824219 21.265625 14.824219 z "
       transform="matrix(16.370052,0,0,14.02345,-8.9444412,32.766476)"
       id="path5" /><g
       id="g7"
       style="fill:#f30000;fill-opacity:1"><path
         d="m 426.2,143.3 c -0.5,-12.4 -4.5,-15.3 -15.1,-15.3 0,0 -121.4,0 -143.2,0 -21.8,0 -24.4,0.3 -40.9,-17.4 C 213.3,95.8 218.7,96 190.4,96 c -22.6,0 -75.3,0 -75.3,0 -17.4,0 -23.6,-1.5 -25.2,16.6 -1.5,16.7 -5,57.2 -5.5,63.4 h 343.4 z"
         id="path9"
         style="fill:#f30000;fill-opacity:1"
         inkscape:connector-curvature="0" /></g></g></svg>