<?xml version="1.0" encoding="UTF-8" standalone="no"?>
<svg
   xmlns:dc="http://purl.org/dc/elements/1.1/"
   xmlns:cc="http://creativecommons.org/ns#"
   xmlns:rdf="http://www.w3.org/1999/02/22-rdf-syntax-ns#"
   xmlns:svg="http://www.w3.org/2000/svg"
   xmlns="http://www.w3.org/2000/svg"
   xmlns:sodipodi="http://sodipodi.sourceforge.net/DTD/sodipodi-0.dtd"
   xmlns:inkscape="http://www.inkscape.org/namespaces/inkscape"
   enable-background="new 0 0 32 32"
   height="32px"
   id="Слой_1"
   version="1.1"
   viewBox="0 0 32 32"
   width="32px"
   xml:space="preserve"
   inkscape:version="0.92.4 (5da689c313, 2019-01-14)"
   sodipodi:docname="loop_group.svg"
   inkscape:export-filename="/home/a/droid/SMP/misc/ic_menu_repeat_one.png"
   inkscape:export-xdpi="189.34193"
   inkscape:export-ydpi="189.34193"><metadata
     id="metadata20"><rdf:RDF><cc:Work
         rdf:about=""><dc:format>image/svg+xml</dc:format><dc:type
           rdf:resource="http://purl.org/dc/dcmitype/StillImage" /><dc:title /></cc:Work></rdf:RDF></metadata><defs
     id="defs18" /><sodipodi:namedview
     pagecolor="#ffffff"
     bordercolor="#666666"
     borderopacity="1"
     objecttolerance="10"
     gridtolerance="10"
     guidetolerance="10"
     inkscape:pageopacity="0"
     inkscape:pageshadow="2"
     inkscape:window-width="1214"
     inkscape:window-height="981"
     id="namedview16"
     showgrid="false"
     inkscape:zoom="6.0794372"
     inkscape:cx="10.901544"
     inkscape:cy="-2.3544038"
     inkscape:window-x="-4"
     inkscape:window-y="0"
     inkscape:window-maximized="0"
     inkscape:current-layer="Слой_1" /><g
     id="g4" /><g
     id="g6" /><g
     id="g8" /><g
     id="g10" /><g
     id="g12" /><g
     id="g14" /><path
     d="M 3.8908858,31.088986 H 28.16727 c 0.95805,0 1.736509,-0.809072 1.734027,-1.805956 L 29.843141,5.9279053 C 29.840656,4.9301184 29.067164,4.1219495 28.109114,4.1219495 h -4.335069 c -0.555755,0 -0.867013,0.4090481 -0.867013,0.9029774 0,0.4939292 0.294784,0.9147172 0.867013,0.9147172 h 3.277312 c 0.579165,0 1.047425,0.4894166 1.049086,1.0926026 l 0.05816,21.1175463 c 0.0017,0.603185 -0.469921,1.092602 -1.049086,1.092602 l -22.1704073,0.02799 c -0.5791648,0 -1.0474281,-0.489416 -1.049087,-1.092603 L 3.8318631,7.0322478 C 3.8302042,6.4290617 4.3017853,5.9396451 4.8809501,5.9396451 H 14.74063 l -1.550926,1.6305722 c -0.338135,0.3566761 -0.338135,0.9336792 0,1.2903548 0.339003,0.355773 0.887822,0.355773 1.225957,0 l 3.035253,-3.1990459 c 0.338136,-0.3557729 0.338136,-0.9336792 0,-1.2903552 0,0 0,0 -8.67e-4,0 L 14.361158,1.1687817 c -0.338136,-0.35577288 -0.887822,-0.35577288 -1.225958,0 -0.338135,0.3566761 -0.338135,0.9336791 0,1.2894531 l 1.631441,1.6628115 H 3.8327302 c -0.9580499,0 -1.7365114,0.8081689 -1.7340269,1.8059559 l 0.058156,23.3551238 c 0.00248,0.997788 0.775977,1.80686 1.7340265,1.80686 z"
     id="Loop"
     inkscape:connector-curvature="0"
     style="clip-rule:evenodd;fill:#f30000;fill-opacity:1;fill-rule:evenodd;stroke:#f30000;stroke-width:1.07331443;stroke-opacity:1"
     sodipodi:nodetypes="sssssssssssccssscccccccccccssss"
     inkscape:export-xdpi="189.34193"
     inkscape:export-ydpi="189.34193" /><g
     id="g3"
     style="fill:#f30000;fill-opacity:1"
     transform="matrix(0.03816765,0,0,0.0445544,6.2279385,7.7724745)"><path
       d="M 430.1,192 H 81.9 c -17.7,0 -18.6,9.2 -17.6,20.5 l 13,183 c 0.9,11.2 3.5,20.5 21.1,20.5 h 316.2 c 18,0 20.1,-9.2 21.1,-20.5 l 12.1,-185.3 c 0.9,-11.2 0,-18.2 -17.7,-18.2 z"
       id="path5"
       style="fill:#f30000;fill-opacity:1"
       inkscape:connector-curvature="0" /><g
       id="g7"
       style="fill:#f30000;fill-opacity:1"><path
         d="m 426.2,143.3 c -0.5,-12.4 -4.5,-15.3 -15.1,-15.3 0,0 -121.4,0 -143.2,0 -21.8,0 -24.4,0.3 -40.9,-17.4 C 213.3,95.8 218.7,96 190.4,96 c -22.6,0 -75.3,0 -75.3,0 -17.4,0 -23.6,-1.5 -25.2,16.6 -1.5,16.7 -5,57.2 -5.5,63.4 h 343.4 z"
         id="path9"
         style="fill:#f30000;fill-opacity:1"
         inkscape:connector-curvature="0" /></g></g></svg>