<?xml version="1.0" encoding="UTF-8" standalone="no"?>
<svg
   xmlns:dc="http://purl.org/dc/elements/1.1/"
   xmlns:cc="http://creativecommons.org/ns#"
   xmlns:rdf="http://www.w3.org/1999/02/22-rdf-syntax-ns#"
   xmlns:svg="http://www.w3.org/2000/svg"
   xmlns="http://www.w3.org/2000/svg"
   xmlns:sodipodi="http://sodipodi.sourceforge.net/DTD/sodipodi-0.dtd"
   xmlns:inkscape="http://www.inkscape.org/namespaces/inkscape"
   enable-background="new 0 0 64 64"
   height="64px"
   id="LAST"
   version="1.1"
   viewBox="0 0 64 64"
   width="64px"
   xml:space="preserve"
   sodipodi:docname="options.svg"
   inkscape:version="0.92.4 (5da689c313, 2019-01-14)"><metadata
     id="metadata11"><rdf:RDF><cc:Work
         rdf:about=""><dc:format>image/svg+xml</dc:format><dc:type
           rdf:resource="http://purl.org/dc/dcmitype/StillImage" /><dc:title></dc:title></cc:Work></rdf:RDF></metadata><defs
     id="defs9" /><sodipodi:namedview
     pagecolor="#ffffff"
     bordercolor="#666666"
     borderopacity="1"
     objecttolerance="10"
     gridtolerance="10"
     guidetolerance="10"
     inkscape:pageopacity="0"
     inkscape:pageshadow="2"
     inkscape:window-width="1495"
     inkscape:window-height="981"
     id="namedview7"
     showgrid="false"
     showguides="false"
     inkscape:zoom="3.6875"
     inkscape:cx="-5.1525424"
     inkscape:cy="32"
     inkscape:window-x="0"
     inkscape:window-y="0"
     inkscape:window-maximized="0"
     inkscape:current-layer="LAST" /><path
     inkscape:connector-curvature="0"
     id="Shape"
     d="m 31.559323,24.135593 c 2.050848,0 3.728814,-1.677966 3.728814,-3.728815 0,-2.050846 -1.677966,-3.728812 -3.728814,-3.728812 -2.050847,0 -3.728813,1.677966 -3.728813,3.728812 0,2.050849 1.677966,3.728815 3.728813,3.728815 z m 0,3.728813 c -2.050847,0 -3.728813,1.677967 -3.728813,3.728814 0,2.050847 1.677966,3.728814 3.728813,3.728814 2.050848,0 3.728814,-1.677967 3.728814,-3.728814 0,-2.050847 -1.677966,-3.728814 -3.728814,-3.728814 z m 0,11.186441 c -2.050847,0 -3.728813,1.677965 -3.728813,3.728813 0,2.050848 1.677966,3.728814 3.728813,3.728814 2.050848,0 3.728814,-1.677966 3.728814,-3.728814 0,-2.050848 -1.677966,-3.728813 -3.728814,-3.728813 z"
     style="fill:#838383;fill-opacity:1;stroke-width:1.8644067" /></svg>