<?xml version="1.0" encoding="UTF-8" standalone="no"?>
<svg
   xmlns:dc="http://purl.org/dc/elements/1.1/"
   xmlns:cc="http://creativecommons.org/ns#"
   xmlns:rdf="http://www.w3.org/1999/02/22-rdf-syntax-ns#"
   xmlns:svg="http://www.w3.org/2000/svg"
   xmlns="http://www.w3.org/2000/svg"
   xmlns:sodipodi="http://sodipodi.sourceforge.net/DTD/sodipodi-0.dtd"
   xmlns:inkscape="http://www.inkscape.org/namespaces/inkscape"
   enable-background="new 0 0 64 64"
   height="64px"
   id="LAST"
   version="1.1"
   viewBox="0 0 64 64"
   width="64px"
   xml:space="preserve"
   sodipodi:docname="options.svg"
   inkscape:version="0.92.4 (5da689c313, 2019-01-14)"><metadata
     id="metadata11"><rdf:RDF><cc:Work
         rdf:about=""><dc:format>image/svg+xml</dc:format><dc:type
           rdf:resource="http://purl.org/dc/dcmitype/StillImage" /><dc:title></dc:title></cc:Work></rdf:RDF></metadata><defs
     id="defs9" /><sodipodi:namedview
     pagecolor="#ffffff"
     bordercolor="#666666"
     borderopacity="1"
     objecttolerance="10"
     gridtolerance="10"
     guidetolerance="10"
     inkscape:pageopacity="0"
     inkscape:pageshadow="2"
     inkscape:window-width="1495"
     inkscape:window-height="981"
     id="namedview7"
     showgrid="false"
     showguides="false"
     inkscape:zoom="5.2149125"
     inkscape:cx="38.541727"
     inkscape:cy="19.051875"
     inkscape:window-x="0"
     inkscape:window-y="0"
     inkscape:window-maximized="0"
     inkscape:current-layer="LAST"
     inkscape:snap-object-midpoints="true" /><path
     inkscape:connector-curvature="0"
     id="Shape"
     d="m 29.953352,25.046442 c 1.668531,0 3.033693,-1.365162 3.033693,-3.033693 0,-1.668529 -1.365162,-3.033691 -3.033693,-3.033691 -1.668529,0 -3.033691,1.365162 -3.033691,3.033691 0,1.668531 1.365162,3.033693 3.033691,3.033693 z m 0,3.033691 c -1.668529,0 -3.033691,1.365162 -3.033691,3.033692 0,1.66853 1.365162,3.033692 3.033691,3.033692 1.668531,0 3.033693,-1.365162 3.033693,-3.033692 0,-1.66853 -1.365162,-3.033692 -3.033693,-3.033692 z m 0,9.101075 c -1.668529,0 -3.033691,1.36516 -3.033691,3.033691 0,1.668531 1.365162,3.033692 3.033691,3.033692 1.668531,0 3.033693,-1.365161 3.033693,-3.033692 0,-1.668531 -1.365162,-3.033691 -3.033693,-3.033691 z"
     style="opacity:0.97000002;fill:#838383;fill-opacity:1;stroke-width:1.5168457"
     inkscape:transform-center-x="3.6981818"
     inkscape:transform-center-y="-0.87016061" /></svg>