<?xml version="1.0" encoding="UTF-8" standalone="no"?>
<!-- Created with Inkscape (http://www.inkscape.org/) -->

<svg
   xmlns:dc="http://purl.org/dc/elements/1.1/"
   xmlns:cc="http://creativecommons.org/ns#"
   xmlns:rdf="http://www.w3.org/1999/02/22-rdf-syntax-ns#"
   xmlns:svg="http://www.w3.org/2000/svg"
   xmlns="http://www.w3.org/2000/svg"
   xmlns:xlink="http://www.w3.org/1999/xlink"
   xmlns:sodipodi="http://sodipodi.sourceforge.net/DTD/sodipodi-0.dtd"
   xmlns:inkscape="http://www.inkscape.org/namespaces/inkscape"
   width="16mm"
   height="16mm"
   viewBox="0 0 16 16"
   version="1.1"
   id="svg48"
   sodipodi:docname="star_3.svg"
   inkscape:version="0.92.4 (5da689c313, 2019-01-14)">
  <defs
     id="defs42">
    <pattern
       inkscape:collect="always"
       xlink:href="#Strips1_3"
       id="pattern2706"
       patternTransform="scale(9.4238874,11.892255)" />
    <pattern
       inkscape:stockid="Stripes 1:3"
       id="Strips1_3"
       patternTransform="translate(0,0) scale(10,10)"
       height="1"
       width="4"
       patternUnits="userSpaceOnUse"
       inkscape:collect="always">
      <rect
         id="rect1549"
         height="2"
         width="1"
         y="-0.5"
         x="0"
         style="fill:black;stroke:none" />
    </pattern>
  </defs>
  <sodipodi:namedview
     id="base"
     pagecolor="#ffffff"
     bordercolor="#666666"
     borderopacity="1.0"
     inkscape:pageopacity="0.0"
     inkscape:pageshadow="2"
     inkscape:zoom="3.959798"
     inkscape:cx="60.407"
     inkscape:cy="72.810415"
     inkscape:document-units="mm"
     inkscape:current-layer="svg48"
     showgrid="false"
     inkscape:window-width="1680"
     inkscape:window-height="985"
     inkscape:window-x="0"
     inkscape:window-y="0"
     inkscape:window-maximized="1" />
  <metadata
     id="metadata45">
    <rdf:RDF>
      <cc:Work
         rdf:about="">
        <dc:format>image/svg+xml</dc:format>
        <dc:type
           rdf:resource="http://purl.org/dc/dcmitype/StillImage" />
        <dc:title></dc:title>
      </cc:Work>
    </rdf:RDF>
  </metadata>
  <g
     inkscape:label="Calque 1"
     inkscape:groupmode="layer"
     id="layer1"
     transform="translate(0,-281)" />
  <path
     style="opacity:0.97399998;fill:url(#pattern2706);fill-opacity:1;stroke:#ff0000;stroke-width:0.1px;stroke-linecap:butt;stroke-linejoin:miter;stroke-opacity:1"
     d="M 8.8654248,2.0203594 10.43576,5.2024265 14.321624,5.780595 c 0.705222,0.1056428 0.926496,0.6010126 0.408286,1.1463468 l -2.832312,2.7752092 0.69523,4.04718 c 0.09279,0.585309 -0.472528,0.926497 -0.970753,0.585309 L 8.0716916,12.483071 4.4570667,14.383174 C 3.9731184,14.630145 3.4748939,14.471688 3.566259,13.793586 L 4.2457853,9.703577 1.3249631,6.866983 C 0.76107012,6.3473436 1.0537234,5.8719627 1.708981,5.7848796 L 5.7076242,5.2038561 c 0,0 0.8208567,-1.6645565 1.5689072,-3.1806417 0.5439068,-1.0164348 1.1406339,-1.0021599 1.5888934,-0.00298 z"
     id="path54"
     inkscape:connector-curvature="0" />
  <path
     style="fill:none;stroke:#000000;stroke-width:0.26612836px;stroke-linecap:butt;stroke-linejoin:miter;stroke-opacity:1"
     d="M 0.99218749,4.2827381 V 2.8653274"
     id="path2708"
     inkscape:connector-curvature="0" />
  <path
     style="fill:none;stroke:#000000;stroke-width:0.26612836px;stroke-linecap:butt;stroke-linejoin:miter;stroke-opacity:1"
     d="M 3.7581548,4.3536086 V 2.8889507"
     id="path2710"
     inkscape:connector-curvature="0" />
  <path
     style="fill:none;stroke:#000000;stroke-width:0.26612836px;stroke-linecap:butt;stroke-linejoin:miter;stroke-opacity:1"
     d="m 6.5480237,3.0070684 c 0,0.086619 0,0.1732391 0,0.2598587 0,0.2283605 0,0.4567211 0,0.6850819 0,0.012353 -0.00315,0.088282 0,0.094494 0.00504,0.00996 0.018861,0.013663 0.023902,0.023625 0.00356,0.00704 0,0.015748 0,0.023625 0,0.00787 0.00564,0.018055 0,0.023625 -0.00564,0.00557 -0.018267,-0.00557 -0.023902,0 -0.018684,0.018468 0.020789,0.041097 0.023902,0.047247 0.00356,0.00704 0.00564,0.018055 0,0.023625 -0.00564,0.00557 -0.015932,0 -0.023902,0 -0.00796,0 -0.023902,0.00787 -0.023902,0 0,-0.00787 0.018267,-0.00557 0.023902,0 0.00564,0.00557 -0.00564,0.018055 0,0.023625 0.00564,0.00557 0.018267,-0.00557 0.023902,0 0.00564,0.00557 -0.00564,0.018055 0,0.023625 0.011267,0.011136 0.036534,-0.011136 0.0478,0 0.035054,0.034648 -0.045411,0.021262 -0.0478,0.023625 -7.763e-4,7.673e-4 0,0.065141 0,0.07087"
     id="path2718"
     inkscape:connector-curvature="0" />
  <path
     style="fill:none;stroke:#000000;stroke-width:0.26612836px;stroke-linecap:butt;stroke-linejoin:miter;stroke-opacity:1"
     d="m 14.926014,2.3456101 0.0478,2.2914805"
     id="path2758"
     inkscape:connector-curvature="0" />
  <path
     style="fill:none;stroke:#000000;stroke-width:0.26612836px;stroke-linecap:butt;stroke-linejoin:miter;stroke-opacity:1"
     d="M 12.160076,2.4164806 V 4.377232"
     id="path2760"
     inkscape:connector-curvature="0" />
  <path
     style="fill:none;stroke:#000000;stroke-width:0.26612836px;stroke-linecap:butt;stroke-linejoin:miter;stroke-opacity:1"
     d="M 9.3941086,2.7235861 V 4.471726"
     id="path2762"
     inkscape:connector-curvature="0" />
</svg>
