<?xml version="1.0" encoding="UTF-8" standalone="no"?>
<!-- Created with Inkscape (http://www.inkscape.org/) -->

<svg
   xmlns:dc="http://purl.org/dc/elements/1.1/"
   xmlns:cc="http://creativecommons.org/ns#"
   xmlns:rdf="http://www.w3.org/1999/02/22-rdf-syntax-ns#"
   xmlns:svg="http://www.w3.org/2000/svg"
   xmlns="http://www.w3.org/2000/svg"
   xmlns:sodipodi="http://sodipodi.sourceforge.net/DTD/sodipodi-0.dtd"
   xmlns:inkscape="http://www.inkscape.org/namespaces/inkscape"
   width="16mm"
   height="16mm"
   viewBox="0 0 16 16"
   version="1.1"
   id="svg48"
   sodipodi:docname="star_1.svg"
   inkscape:version="0.92.4 (5da689c313, 2019-01-14)">
  <defs
     id="defs42" />
  <sodipodi:namedview
     id="base"
     pagecolor="#ffffff"
     bordercolor="#666666"
     borderopacity="1.0"
     inkscape:pageopacity="0.0"
     inkscape:pageshadow="2"
     inkscape:zoom="31.678384"
     inkscape:cx="14.718413"
     inkscape:cy="30.49526"
     inkscape:document-units="mm"
     inkscape:current-layer="svg48"
     showgrid="true"
     inkscape:window-width="1680"
     inkscape:window-height="985"
     inkscape:window-x="0"
     inkscape:window-y="0"
     inkscape:window-maximized="1">
    <inkscape:grid
       type="xygrid"
       id="grid4943"
       spacingx="0.13229166"
       spacingy="0.13229166" />
  </sodipodi:namedview>
  <metadata
     id="metadata45">
    <rdf:RDF>
      <cc:Work
         rdf:about="">
        <dc:format>image/svg+xml</dc:format>
        <dc:type
           rdf:resource="http://purl.org/dc/dcmitype/StillImage" />
        <dc:title></dc:title>
      </cc:Work>
    </rdf:RDF>
  </metadata>
  <g
     inkscape:label="Calque 1"
     inkscape:groupmode="layer"
     id="layer1"
     transform="translate(0,-281)" />
  <path
     style="color:#000000;font-style:normal;font-variant:normal;font-weight:normal;font-stretch:normal;font-size:medium;line-height:normal;font-family:sans-serif;font-variant-ligatures:normal;font-variant-position:normal;font-variant-caps:normal;font-variant-numeric:normal;font-variant-alternates:normal;font-feature-settings:normal;text-indent:0;text-align:start;text-decoration:none;text-decoration-line:none;text-decoration-style:solid;text-decoration-color:#000000;letter-spacing:normal;word-spacing:normal;text-transform:none;writing-mode:lr-tb;direction:ltr;text-orientation:mixed;dominant-baseline:auto;baseline-shift:baseline;text-anchor:start;white-space:normal;shape-padding:0;clip-rule:nonzero;display:inline;overflow:visible;visibility:visible;opacity:0.97399998;isolation:auto;mix-blend-mode:normal;color-interpolation:sRGB;color-interpolation-filters:linearRGB;solid-color:#000000;solid-opacity:1;vector-effect:none;fill:#ff0000;fill-opacity:1;fill-rule:nonzero;stroke:none;stroke-width:0.80000001;stroke-linecap:butt;stroke-linejoin:miter;stroke-miterlimit:4;stroke-dasharray:none;stroke-dashoffset:0;stroke-opacity:1;color-rendering:auto;image-rendering:auto;shape-rendering:auto;text-rendering:auto;enable-background:accumulate"
     d="M 8.109375,0.86523438 C 7.8497863,0.86389287 7.61314,0.98519729 7.4238281,1.15625 c -0.1893118,0.1710527 -0.3494842,0.3964555 -0.5,0.6777344 l -0.00391,0.00586 -0.00195,0.00586 C 6.2144686,3.2714975 5.5323773,4.6573804 5.4433594,4.8378906 L 1.65625,5.3886719 C 1.2421059,5.4437112 0.85869974,5.6233447 0.69335938,6.0039062 0.52801901,6.3844678 0.70268247,6.8357761 1.0546875,7.1601562 L 3.8164062,9.84375 3.1699219,13.734375 v 0.0059 c -0.059081,0.438494 0.1001125,0.866232 0.4355469,1.046875 0.3354343,0.180644 0.7108746,0.117618 1.0332031,-0.04687 l 0.00195,-0.002 3.4316406,-1.802734 3.3652345,1.753906 -0.04102,-0.02539 c 0.358589,0.245565 0.806818,0.268521 1.138672,0.06836 0.331854,-0.200161 0.521072,-0.616324 0.453125,-1.044922 v -0.0039 l -0.660156,-3.8417971 2.6875,-2.6347657 0.0039,-0.00391 C 15.339881,6.8660071 15.506698,6.4341913 15.357422,6.0449219 15.208146,5.6556524 14.818,5.4502496 14.380859,5.3847656 L 10.701172,4.8378906 9.2304688,1.8574219 9.2246094,1.84375 9.2265594,1.85156 C 9.1019032,1.5751398 8.9625389,1.3471537 8.7851562,1.171875 8.6062324,0.99507338 8.3689637,0.86657588 8.109375,0.86523438 Z M 8.105465,1.6660156 c 0.013614,7.04e-5 0.041155,-9.119e-4 0.1171874,0.074219 0.075009,0.074119 0.1760268,0.2224842 0.2734376,0.4375 0.00133,0.00293 0.00258,0.0029 0.00391,0.00586 l 0.00586,0.013672 1.664063,3.3691406 4.091797,0.609375 c 0.268081,0.040159 0.341495,0.1350904 0.349609,0.15625 0.008,0.020906 0.02046,0.1134906 -0.169922,0.3164063 L 11.46875,9.5625 l 0.730469,4.253906 -0.002,-0.0039 c 0.02484,0.156711 -0.02206,0.202912 -0.07422,0.234375 -0.05216,0.03146 -0.135755,0.05265 -0.275391,-0.04297 l -0.01953,-0.01367 -3.7578125,-1.958984 -3.7949219,1.996094 c -0.1616198,0.08248 -0.2772387,0.06301 -0.2890625,0.05664 -0.011824,-0.0064 -0.055722,0.0033 -0.023437,-0.236328 L 4.6738281,9.5625 3.8364581,8.7239587 c 0,-1.8520833 0,-2.0360513 0,-2.8298013 l 2.1361913,-0.3238486 0.09375,-0.1894531 c 0,0 0.8167179,-1.6564742 1.5625,-3.1679688 C 7.7503438,1.9859521 7.869428,1.8309187 7.9589844,1.75 8.0485408,1.6690813 8.0918549,1.6659453 8.1054688,1.6660156 Z"
     id="path54"
     inkscape:connector-curvature="0"
     sodipodi:nodetypes="sscccccsccccccccccscccccscccccsscccccccccccccccccccccccccscc" />
  <path
     style="fill:none;stroke:#000000;stroke-width:0.26612836px;stroke-linecap:butt;stroke-linejoin:miter;stroke-opacity:1"
     d="M 0.99218749,4.2827381 V 2.8653274"
     id="path2708"
     inkscape:connector-curvature="0" />
  <path
     style="fill:none;stroke:#000000;stroke-width:0.26612836px;stroke-linecap:butt;stroke-linejoin:miter;stroke-opacity:1"
     d="M 3.7581548,4.3536086 V 2.8889507"
     id="path2710"
     inkscape:connector-curvature="0" />
  <path
     style="fill:none;stroke:#000000;stroke-width:0.26612836px;stroke-linecap:butt;stroke-linejoin:miter;stroke-opacity:1"
     d="m 6.5480237,3.0070684 c 0,0.086619 0,0.1732391 0,0.2598587 0,0.2283605 0,0.4567211 0,0.6850819 0,0.012353 -0.00315,0.088282 0,0.094494 0.00504,0.00996 0.018861,0.013663 0.023902,0.023625 0.00356,0.00704 0,0.015748 0,0.023625 0,0.00787 0.00564,0.018055 0,0.023625 -0.00564,0.00557 -0.018267,-0.00557 -0.023902,0 -0.018684,0.018468 0.020789,0.041097 0.023902,0.047247 0.00356,0.00704 0.00564,0.018055 0,0.023625 -0.00564,0.00557 -0.015932,0 -0.023902,0 -0.00796,0 -0.023902,0.00787 -0.023902,0 0,-0.00787 0.018267,-0.00557 0.023902,0 0.00564,0.00557 -0.00564,0.018055 0,0.023625 0.00564,0.00557 0.018267,-0.00557 0.023902,0 0.00564,0.00557 -0.00564,0.018055 0,0.023625 0.011267,0.011136 0.036534,-0.011136 0.0478,0 0.035054,0.034648 -0.045411,0.021262 -0.0478,0.023625 -7.763e-4,7.673e-4 0,0.065141 0,0.07087"
     id="path2718"
     inkscape:connector-curvature="0" />
  <path
     style="fill:none;stroke:#000000;stroke-width:0.26612836px;stroke-linecap:butt;stroke-linejoin:miter;stroke-opacity:1"
     d="m 14.926014,2.3456101 0.0478,2.2914805"
     id="path2758"
     inkscape:connector-curvature="0" />
  <path
     style="fill:none;stroke:#000000;stroke-width:0.26612836px;stroke-linecap:butt;stroke-linejoin:miter;stroke-opacity:1"
     d="M 12.160076,2.4164806 V 4.377232"
     id="path2760"
     inkscape:connector-curvature="0" />
  <path
     style="fill:none;stroke:#000000;stroke-width:0.26612836px;stroke-linecap:butt;stroke-linejoin:miter;stroke-opacity:1"
     d="M 9.3941086,2.7235861 V 4.471726"
     id="path2762"
     inkscape:connector-curvature="0" />
</svg>
